<?xml version="1.0" encoding="UTF-8"?>
<svg id="Layer_1" data-name="Layer 1" xmlns="http://www.w3.org/2000/svg" viewBox="0 0 1454.09 346.35">
  <defs>
    <style>
      .cls-1 {
        fill: #cfc0ff;
      }

      .cls-1, .cls-2, .cls-3, .cls-4, .cls-5 {
        stroke-width: 0px;
      }

      .cls-2 {
        fill: #191919;
      }

      .cls-3 {
        fill: #9273ff;
      }

      .cls-4 {
        fill: #191919;
      }

      .cls-5 {
        fill: #6837ee;
      }
    </style>
  </defs>
  <g>
    <path class="cls-5" d="M174.71,239.01v107.34l-88.28-49.28v-83.15c-.03-56.72-17.73-91.51-40.1-117.23C23.97,70.98.32,51.19.32,51.19l93.59,54.04c26.71,15.31,80.77,61.1,80.8,133.78Z"/>
    <path class="cls-1" d="M93.91,105.24L.32,51.19,87.5,0l71.97,41.94c49.1,28.58,88.15,30.89,121.69,24.59,33.53-6.3,65.51-16.16,65.51-16.16l-94.15,52.91c-26.72,15.29-95.69,38.59-158.61,1.96Z"/>
    <path class="cls-3" d="M252.52,103.27l94.15-52.91v100.92l-72.52,40.99c-49.45,27.98-71.07,60.5-82.47,92.59-11.4,32.08-16.97,61.49-16.97,61.49v-107.34c.18-30.73,14.44-99.88,77.81-135.74Z"/>
  </g>
  <g>
    <path class="cls-2" d="M533.85,131.95h-33.4v53.79c0,18.62,7.39,23.64,33.4,20.39v33.4c-45.22,10.93-73.29-5.02-73.29-51.72v-55.86h-22.17v-30.74h22.17v-35.17h39.9v35.17h33.4v30.74Z"/>
    <path class="cls-2" d="M683.68,181.89h-99.89c2.95,16.25,12.12,29.26,31.03,29.26,15.37,0,23.05-8.27,26.6-17.14h40.19c-7.68,33.99-35.17,49.95-67.09,49.95-36.35,0-71.82-21.57-71.82-74.18s35.76-73.29,71.52-73.29,73.59,22.76,69.45,85.41ZM583.79,158.25h59.99c-2.95-18.03-12.41-28.96-29.85-28.96s-27.19,12.41-30.14,28.96Z"/>
    <path class="cls-2" d="M827.6,150.27v88.96h-39.9v-79.21c0-17.73-7.98-27.49-23.94-27.49s-24.53,10.93-24.53,27.49v79.21h-39.9V101.21h39.9v18.91c5.61-9.16,19.5-23.05,42.26-23.05,30.74,0,46.1,20.98,46.1,53.2Z"/>
    <path class="cls-2" d="M942.85,59.83h40.19v179.39h-39.9v-15.07c-9.46,12.12-24.23,19.21-41.67,19.21-33.99,0-58.52-25.71-58.52-73s24.53-73.29,58.52-73.29c17.44,0,31.92,7.09,41.38,19.21v-56.45ZM945.51,170.37c0-21.87-9.46-39.6-31.33-39.6s-30.44,16.26-30.44,39.6,8.87,39.31,30.44,39.31,31.33-17.44,31.33-39.31Z"/>
    <path class="cls-2" d="M1139.08,181.89h-99.89c2.95,16.25,12.12,29.26,31.03,29.26,15.37,0,23.05-8.27,26.6-17.14h40.19c-7.68,33.99-35.17,49.95-67.09,49.95-36.35,0-71.82-21.57-71.82-74.18s35.76-73.29,71.52-73.29,73.59,22.76,69.45,85.41ZM1039.19,158.25h59.99c-2.95-18.03-12.41-28.96-29.85-28.96s-27.19,12.41-30.14,28.96Z"/>
    <path class="cls-2" d="M1194.33,125.15c11.23-23.64,27.19-31.92,51.72-26.6v41.67h-1.18c-25.12-10.64-50.24,2.66-50.24,34.87v64.13h-39.9V101.21h39.6v23.94Z"/>
    <path class="cls-2" d="M1258.16,239.23V59.54h39.9v179.69h-39.9Z"/>
    <path class="cls-4" d="M1410.95,101.21h43.15l-69.75,185.6h-43.74l20.1-45.51-52.61-140.08h43.15l29.55,94.87,30.14-94.87Z"/>
  </g>
</svg>